<svg xmlns="http://www.w3.org/2000/svg" width="1000" height="650" viewBox="0 0 1000 650" role="img" aria-label="AR06 Secuencia de finalización"><title>Secuencia de finalización</title><defs><marker id="arrow" viewBox="0 0 10 10" refX="9" refY="5" markerWidth="7" markerHeight="7" orient="auto-start-reverse"><path d="M 0 0 L 10 5 L 0 10 z" fill="#555"/></marker></defs><rect x="30" y="30" width="205" height="55" rx="12" fill="#eee" stroke="#888888" stroke-width="1.5"/><text x="45" y="66" font-family="Arial, sans-serif" font-size="23" font-weight="700" fill="#222">Interfaz</text><line x1="130" y1="85" x2="130" y2="610" stroke="#555" stroke-width="2"/><rect x="275" y="30" width="205" height="55" rx="12" fill="#eee" stroke="#888888" stroke-width="1.5"/><text x="290" y="66" font-family="Arial, sans-serif" font-size="23" font-weight="700" fill="#222">Next.js</text><line x1="375" y1="85" x2="375" y2="610" stroke="#555" stroke-width="2"/><rect x="525" y="30" width="205" height="55" rx="12" fill="#eee" stroke="#888888" stroke-width="1.5"/><text x="540" y="66" font-family="Arial, sans-serif" font-size="23" font-weight="700" fill="#222">Auth / RLS</text><line x1="625" y1="85" x2="625" y2="610" stroke="#555" stroke-width="2"/><rect x="775" y="30" width="205" height="55" rx="12" fill="#eee" stroke="#888888" stroke-width="1.5"/><text x="790" y="66" font-family="Arial, sans-serif" font-size="23" font-weight="700" fill="#222">PostgreSQL</text><line x1="875" y1="85" x2="875" y2="610" stroke="#555" stroke-width="2"/><line x1="130" y1="135" x2="375" y2="135" stroke="#555" stroke-width="2" marker-end="url(#arrow)"/><text x="142" y="123" font-family="Arial, sans-serif" font-size="18" font-weight="400" fill="#222">POST complete(sessionId)</text><line x1="375" y1="200" x2="625" y2="200" stroke="#555" stroke-width="2" marker-end="url(#arrow)"/><text x="387" y="188" font-family="Arial, sans-serif" font-size="18" font-weight="400" fill="#222">Verificar identidad y acceso</text><line x1="375" y1="270" x2="875" y2="270" stroke="#555" stroke-width="2" marker-end="url(#arrow)"/><text x="387" y="258" font-family="Arial, sans-serif" font-size="18" font-weight="400" fill="#222">Transacción y bloqueo de sesión</text><line x1="875" y1="340" x2="375" y2="340" stroke="#555" stroke-width="2" marker-end="url(#arrow)"/><text x="387" y="328" font-family="Arial, sans-serif" font-size="18" font-weight="400" fill="#222">Completada: resultado existente</text><line x1="875" y1="410" x2="375" y2="410" stroke="#555" stroke-width="2" marker-end="url(#arrow)"/><text x="387" y="398" font-family="Arial, sans-serif" font-size="18" font-weight="400" fill="#222">Activa: validar y finalizar una vez</text><line x1="375" y1="485" x2="130" y2="485" stroke="#555" stroke-width="2" marker-end="url(#arrow)"/><text x="142" y="473" font-family="Arial, sans-serif" font-size="18" font-weight="400" fill="#222">200 + resultado persistido</text><line x1="130" y1="565" x2="375" y2="565" stroke="#555" stroke-width="2" marker-end="url(#arrow)"/><text x="142" y="553" font-family="Arial, sans-serif" font-size="18" font-weight="400" fill="#222">Fallo de red: reenviar mismo ID</text></svg>