<svg xmlns="http://www.w3.org/2000/svg" width="1000" height="650" viewBox="0 0 1000 650" role="img" aria-label="WF02 Selección de perfil"><title>Selección de perfil</title><defs><marker id="arrow" viewBox="0 0 10 10" refX="9" refY="5" markerWidth="7" markerHeight="7" orient="auto-start-reverse"><path d="M 0 0 L 10 5 L 0 10 z" fill="#555"/></marker></defs><rect x="1" y="1" width="998" height="648" rx="22" fill="#fbfbfb" stroke="#777" stroke-width="1.5"/><text x="32" y="49" font-family="Arial, sans-serif" font-size="25" font-weight="700" fill="#222">edukids</text><text x="750" y="46" font-family="Arial, sans-serif" font-size="17" font-weight="400" fill="#222">Wireframe E2</text><line x1="30" y1="75" x2="970" y2="75" stroke="#555" stroke-width="2"/><text x="40" y="126" font-family="Arial, sans-serif" font-size="32" font-weight="700" fill="#222">¿Quién va a jugar?</text><rect x="700" y="552" width="260" height="64" rx="12" fill="#fff" stroke="#444444" stroke-width="1.5"/><text x="720" y="592" font-family="Arial, sans-serif" font-size="21" font-weight="700" fill="#222">Volver</text><rect x="70" y="210" width="385" height="250" rx="12" fill="#f0f0f0" stroke="#999" stroke-width="1.5"/><text x="90" y="252" font-family="Arial, sans-serif" font-size="26" font-weight="700" fill="#222">★ Leo</text><text x="90" y="288" font-family="Arial, sans-serif" font-size="19" font-weight="400" fill="#222">Toca tu dibujo para entrar</text><rect x="535" y="210" width="385" height="250" rx="12" fill="#f0f0f0" stroke="#999" stroke-width="1.5"/><text x="555" y="252" font-family="Arial, sans-serif" font-size="26" font-weight="700" fill="#222">● Noa</text><text x="555" y="288" font-family="Arial, sans-serif" font-size="19" font-weight="400" fill="#222">Toca tu dibujo para entrar</text><rect x="40" y="552" width="360" height="64" rx="12" fill="#fff" stroke="#444444" stroke-width="1.5"/><text x="60" y="592" font-family="Arial, sans-serif" font-size="21" font-weight="700" fill="#222">No hay perfiles todavía</text><a href="#WF01" aria-label="Volver"><rect x="700" y="552" width="260" height="64" fill="transparent"/></a><a href="#WF22" aria-label="★ Leo"><rect x="70" y="210" width="385" height="250" fill="transparent"/></a><a href="#WF22" aria-label="● Noa"><rect x="535" y="210" width="385" height="250" fill="transparent"/></a><a href="#WF15" aria-label="No hay perfiles todavía"><rect x="40" y="552" width="360" height="64" fill="transparent"/></a></svg>